<?xml version="1.0" encoding="utf-8" standalone="no"?>
<!DOCTYPE svg PUBLIC "-//W3C//DTD SVG 1.1//EN"
  "http://www.w3.org/Graphics/SVG/1.1/DTD/svg11.dtd">
<svg xmlns:xlink="http://www.w3.org/1999/xlink" width="460.8pt" height="345.6pt" viewBox="0 0 460.8 345.6" xmlns="http://www.w3.org/2000/svg" version="1.1">
 <metadata>
  <rdf:RDF xmlns:dc="http://purl.org/dc/elements/1.1/" xmlns:cc="http://creativecommons.org/ns#" xmlns:rdf="http://www.w3.org/1999/02/22-rdf-syntax-ns#">
   <cc:Work>
    <dc:type rdf:resource="http://purl.org/dc/dcmitype/StillImage"/>
    <dc:date>2025-12-17T21:02:21.224538</dc:date>
    <dc:format>image/svg+xml</dc:format>
    <dc:creator>
     <cc:Agent>
      <dc:title>Matplotlib v3.10.8, https://matplotlib.org/</dc:title>
     </cc:Agent>
    </dc:creator>
   </cc:Work>
  </rdf:RDF>
 </metadata>
 <defs>
  <style type="text/css">*{stroke-linejoin: round; stroke-linecap: butt}</style>
 </defs>
 <g id="figure_1">
  <g id="patch_1">
   <path d="M 0 345.6 
L 460.8 345.6 
L 460.8 0 
L 0 0 
z
" style="fill: #ffffff"/>
  </g>
  <g id="axes_1">
   <g id="patch_2">
    <path d="M 57.6 307.584 
L 414.72 307.584 
L 414.72 41.472 
L 57.6 41.472 
z
" style="fill: #ffffff"/>
   </g>
   <g id="matplotlib.axis_1">
    <g id="xtick_1">
     <g id="line2d_1">
      <defs>
       <path id="m8e7d7ecf5c" d="M 0 0 
L 0 3.5 
" style="stroke: #000000; stroke-width: 0.8"/>
      </defs>
      <g>
       <use xlink:href="#m8e7d7ecf5c" x="73.832727" y="307.584" style="stroke: #000000; stroke-width: 0.8"/>
      </g>
     </g>
     <g id="text_1">
      <!-- 0 -->
      <g transform="translate(70.651477 322.182437) scale(0.1 -0.1)">
       <defs>
        <path id="DejaVuSans-30" d="M 2034 4250 
Q 1547 4250 1301 3770 
Q 1056 3291 1056 2328 
Q 1056 1369 1301 889 
Q 1547 409 2034 409 
Q 2525 409 2770 889 
Q 3016 1369 3016 2328 
Q 3016 3291 2770 3770 
Q 2525 4250 2034 4250 
z
M 2034 4750 
Q 2819 4750 3233 4129 
Q 3647 3509 3647 2328 
Q 3647 1150 3233 529 
Q 2819 -91 2034 -91 
Q 1250 -91 836 529 
Q 422 1150 422 2328 
Q 422 3509 836 4129 
Q 1250 4750 2034 4750 
z
" transform="scale(0.015625)"/>
       </defs>
       <use xlink:href="#DejaVuSans-30"/>
      </g>
     </g>
    </g>
    <g id="xtick_2">
     <g id="line2d_2">
      <g>
       <use xlink:href="#m8e7d7ecf5c" x="138.893758" y="307.584" style="stroke: #000000; stroke-width: 0.8"/>
      </g>
     </g>
     <g id="text_2">
      <!-- 100 -->
      <g transform="translate(129.350008 322.182437) scale(0.1 -0.1)">
       <defs>
        <path id="DejaVuSans-31" d="M 794 531 
L 1825 531 
L 1825 4091 
L 703 3866 
L 703 4441 
L 1819 4666 
L 2450 4666 
L 2450 531 
L 3481 531 
L 3481 0 
L 794 0 
L 794 531 
z
" transform="scale(0.015625)"/>
       </defs>
       <use xlink:href="#DejaVuSans-31"/>
       <use xlink:href="#DejaVuSans-30" transform="translate(63.623047 0)"/>
       <use xlink:href="#DejaVuSans-30" transform="translate(127.246094 0)"/>
      </g>
     </g>
    </g>
    <g id="xtick_3">
     <g id="line2d_3">
      <g>
       <use xlink:href="#m8e7d7ecf5c" x="203.95479" y="307.584" style="stroke: #000000; stroke-width: 0.8"/>
      </g>
     </g>
     <g id="text_3">
      <!-- 200 -->
      <g transform="translate(194.41104 322.182437) scale(0.1 -0.1)">
       <defs>
        <path id="DejaVuSans-32" d="M 1228 531 
L 3431 531 
L 3431 0 
L 469 0 
L 469 531 
Q 828 903 1448 1529 
Q 2069 2156 2228 2338 
Q 2531 2678 2651 2914 
Q 2772 3150 2772 3378 
Q 2772 3750 2511 3984 
Q 2250 4219 1831 4219 
Q 1534 4219 1204 4116 
Q 875 4013 500 3803 
L 500 4441 
Q 881 4594 1212 4672 
Q 1544 4750 1819 4750 
Q 2544 4750 2975 4387 
Q 3406 4025 3406 3419 
Q 3406 3131 3298 2873 
Q 3191 2616 2906 2266 
Q 2828 2175 2409 1742 
Q 1991 1309 1228 531 
z
" transform="scale(0.015625)"/>
       </defs>
       <use xlink:href="#DejaVuSans-32"/>
       <use xlink:href="#DejaVuSans-30" transform="translate(63.623047 0)"/>
       <use xlink:href="#DejaVuSans-30" transform="translate(127.246094 0)"/>
      </g>
     </g>
    </g>
    <g id="xtick_4">
     <g id="line2d_4">
      <g>
       <use xlink:href="#m8e7d7ecf5c" x="269.015821" y="307.584" style="stroke: #000000; stroke-width: 0.8"/>
      </g>
     </g>
     <g id="text_4">
      <!-- 300 -->
      <g transform="translate(259.472071 322.182437) scale(0.1 -0.1)">
       <defs>
        <path id="DejaVuSans-33" d="M 2597 2516 
Q 3050 2419 3304 2112 
Q 3559 1806 3559 1356 
Q 3559 666 3084 287 
Q 2609 -91 1734 -91 
Q 1441 -91 1130 -33 
Q 819 25 488 141 
L 488 750 
Q 750 597 1062 519 
Q 1375 441 1716 441 
Q 2309 441 2620 675 
Q 2931 909 2931 1356 
Q 2931 1769 2642 2001 
Q 2353 2234 1838 2234 
L 1294 2234 
L 1294 2753 
L 1863 2753 
Q 2328 2753 2575 2939 
Q 2822 3125 2822 3475 
Q 2822 3834 2567 4026 
Q 2313 4219 1838 4219 
Q 1578 4219 1281 4162 
Q 984 4106 628 3988 
L 628 4550 
Q 988 4650 1302 4700 
Q 1616 4750 1894 4750 
Q 2613 4750 3031 4423 
Q 3450 4097 3450 3541 
Q 3450 3153 3228 2886 
Q 3006 2619 2597 2516 
z
" transform="scale(0.015625)"/>
       </defs>
       <use xlink:href="#DejaVuSans-33"/>
       <use xlink:href="#DejaVuSans-30" transform="translate(63.623047 0)"/>
       <use xlink:href="#DejaVuSans-30" transform="translate(127.246094 0)"/>
      </g>
     </g>
    </g>
    <g id="xtick_5">
     <g id="line2d_5">
      <g>
       <use xlink:href="#m8e7d7ecf5c" x="334.076852" y="307.584" style="stroke: #000000; stroke-width: 0.8"/>
      </g>
     </g>
     <g id="text_5">
      <!-- 400 -->
      <g transform="translate(324.533102 322.182437) scale(0.1 -0.1)">
       <defs>
        <path id="DejaVuSans-34" d="M 2419 4116 
L 825 1625 
L 2419 1625 
L 2419 4116 
z
M 2253 4666 
L 3047 4666 
L 3047 1625 
L 3713 1625 
L 3713 1100 
L 3047 1100 
L 3047 0 
L 2419 0 
L 2419 1100 
L 313 1100 
L 313 1709 
L 2253 4666 
z
" transform="scale(0.015625)"/>
       </defs>
       <use xlink:href="#DejaVuSans-34"/>
       <use xlink:href="#DejaVuSans-30" transform="translate(63.623047 0)"/>
       <use xlink:href="#DejaVuSans-30" transform="translate(127.246094 0)"/>
      </g>
     </g>
    </g>
    <g id="xtick_6">
     <g id="line2d_6">
      <g>
       <use xlink:href="#m8e7d7ecf5c" x="399.137883" y="307.584" style="stroke: #000000; stroke-width: 0.8"/>
      </g>
     </g>
     <g id="text_6">
      <!-- 500 -->
      <g transform="translate(389.594133 322.182437) scale(0.1 -0.1)">
       <defs>
        <path id="DejaVuSans-35" d="M 691 4666 
L 3169 4666 
L 3169 4134 
L 1269 4134 
L 1269 2991 
Q 1406 3038 1543 3061 
Q 1681 3084 1819 3084 
Q 2600 3084 3056 2656 
Q 3513 2228 3513 1497 
Q 3513 744 3044 326 
Q 2575 -91 1722 -91 
Q 1428 -91 1123 -41 
Q 819 9 494 109 
L 494 744 
Q 775 591 1075 516 
Q 1375 441 1709 441 
Q 2250 441 2565 725 
Q 2881 1009 2881 1497 
Q 2881 1984 2565 2268 
Q 2250 2553 1709 2553 
Q 1456 2553 1204 2497 
Q 953 2441 691 2322 
L 691 4666 
z
" transform="scale(0.015625)"/>
       </defs>
       <use xlink:href="#DejaVuSans-35"/>
       <use xlink:href="#DejaVuSans-30" transform="translate(63.623047 0)"/>
       <use xlink:href="#DejaVuSans-30" transform="translate(127.246094 0)"/>
      </g>
     </g>
    </g>
    <g id="text_7">
     <!-- Epoch -->
     <g transform="translate(220.849063 335.860562) scale(0.1 -0.1)">
      <defs>
       <path id="DejaVuSans-45" d="M 628 4666 
L 3578 4666 
L 3578 4134 
L 1259 4134 
L 1259 2753 
L 3481 2753 
L 3481 2222 
L 1259 2222 
L 1259 531 
L 3634 531 
L 3634 0 
L 628 0 
L 628 4666 
z
" transform="scale(0.015625)"/>
       <path id="DejaVuSans-70" d="M 1159 525 
L 1159 -1331 
L 581 -1331 
L 581 3500 
L 1159 3500 
L 1159 2969 
Q 1341 3281 1617 3432 
Q 1894 3584 2278 3584 
Q 2916 3584 3314 3078 
Q 3713 2572 3713 1747 
Q 3713 922 3314 415 
Q 2916 -91 2278 -91 
Q 1894 -91 1617 61 
Q 1341 213 1159 525 
z
M 3116 1747 
Q 3116 2381 2855 2742 
Q 2594 3103 2138 3103 
Q 1681 3103 1420 2742 
Q 1159 2381 1159 1747 
Q 1159 1113 1420 752 
Q 1681 391 2138 391 
Q 2594 391 2855 752 
Q 3116 1113 3116 1747 
z
" transform="scale(0.015625)"/>
       <path id="DejaVuSans-6f" d="M 1959 3097 
Q 1497 3097 1228 2736 
Q 959 2375 959 1747 
Q 959 1119 1226 758 
Q 1494 397 1959 397 
Q 2419 397 2687 759 
Q 2956 1122 2956 1747 
Q 2956 2369 2687 2733 
Q 2419 3097 1959 3097 
z
M 1959 3584 
Q 2709 3584 3137 3096 
Q 3566 2609 3566 1747 
Q 3566 888 3137 398 
Q 2709 -91 1959 -91 
Q 1206 -91 779 398 
Q 353 888 353 1747 
Q 353 2609 779 3096 
Q 1206 3584 1959 3584 
z
" transform="scale(0.015625)"/>
       <path id="DejaVuSans-63" d="M 3122 3366 
L 3122 2828 
Q 2878 2963 2633 3030 
Q 2388 3097 2138 3097 
Q 1578 3097 1268 2742 
Q 959 2388 959 1747 
Q 959 1106 1268 751 
Q 1578 397 2138 397 
Q 2388 397 2633 464 
Q 2878 531 3122 666 
L 3122 134 
Q 2881 22 2623 -34 
Q 2366 -91 2075 -91 
Q 1284 -91 818 406 
Q 353 903 353 1747 
Q 353 2603 823 3093 
Q 1294 3584 2113 3584 
Q 2378 3584 2631 3529 
Q 2884 3475 3122 3366 
z
" transform="scale(0.015625)"/>
       <path id="DejaVuSans-68" d="M 3513 2113 
L 3513 0 
L 2938 0 
L 2938 2094 
Q 2938 2591 2744 2837 
Q 2550 3084 2163 3084 
Q 1697 3084 1428 2787 
Q 1159 2491 1159 1978 
L 1159 0 
L 581 0 
L 581 4863 
L 1159 4863 
L 1159 2956 
Q 1366 3272 1645 3428 
Q 1925 3584 2291 3584 
Q 2894 3584 3203 3211 
Q 3513 2838 3513 2113 
z
" transform="scale(0.015625)"/>
      </defs>
      <use xlink:href="#DejaVuSans-45"/>
      <use xlink:href="#DejaVuSans-70" transform="translate(63.183594 0)"/>
      <use xlink:href="#DejaVuSans-6f" transform="translate(126.660156 0)"/>
      <use xlink:href="#DejaVuSans-63" transform="translate(187.841797 0)"/>
      <use xlink:href="#DejaVuSans-68" transform="translate(242.822266 0)"/>
     </g>
    </g>
   </g>
   <g id="matplotlib.axis_2">
    <g id="ytick_1">
     <g id="line2d_7">
      <defs>
       <path id="me2e87196b8" d="M 0 0 
L -3.5 0 
" style="stroke: #000000; stroke-width: 0.8"/>
      </defs>
      <g>
       <use xlink:href="#me2e87196b8" x="57.6" y="271.58811" style="stroke: #000000; stroke-width: 0.8"/>
      </g>
     </g>
     <g id="text_8">
      <!-- −0.04 -->
      <g transform="translate(19.954687 275.387329) scale(0.1 -0.1)">
       <defs>
        <path id="DejaVuSans-2212" d="M 678 2272 
L 4684 2272 
L 4684 1741 
L 678 1741 
L 678 2272 
z
" transform="scale(0.015625)"/>
        <path id="DejaVuSans-2e" d="M 684 794 
L 1344 794 
L 1344 0 
L 684 0 
L 684 794 
z
" transform="scale(0.015625)"/>
       </defs>
       <use xlink:href="#DejaVuSans-2212"/>
       <use xlink:href="#DejaVuSans-30" transform="translate(83.789062 0)"/>
       <use xlink:href="#DejaVuSans-2e" transform="translate(147.412109 0)"/>
       <use xlink:href="#DejaVuSans-30" transform="translate(179.199219 0)"/>
       <use xlink:href="#DejaVuSans-34" transform="translate(242.822266 0)"/>
      </g>
     </g>
    </g>
    <g id="ytick_2">
     <g id="line2d_8">
      <g>
       <use xlink:href="#me2e87196b8" x="57.6" y="218.477243" style="stroke: #000000; stroke-width: 0.8"/>
      </g>
     </g>
     <g id="text_9">
      <!-- −0.02 -->
      <g transform="translate(19.954687 222.276461) scale(0.1 -0.1)">
       <use xlink:href="#DejaVuSans-2212"/>
       <use xlink:href="#DejaVuSans-30" transform="translate(83.789062 0)"/>
       <use xlink:href="#DejaVuSans-2e" transform="translate(147.412109 0)"/>
       <use xlink:href="#DejaVuSans-30" transform="translate(179.199219 0)"/>
       <use xlink:href="#DejaVuSans-32" transform="translate(242.822266 0)"/>
      </g>
     </g>
    </g>
    <g id="ytick_3">
     <g id="line2d_9">
      <g>
       <use xlink:href="#me2e87196b8" x="57.6" y="165.366375" style="stroke: #000000; stroke-width: 0.8"/>
      </g>
     </g>
     <g id="text_10">
      <!-- 0.00 -->
      <g transform="translate(28.334375 169.165594) scale(0.1 -0.1)">
       <use xlink:href="#DejaVuSans-30"/>
       <use xlink:href="#DejaVuSans-2e" transform="translate(63.623047 0)"/>
       <use xlink:href="#DejaVuSans-30" transform="translate(95.410156 0)"/>
       <use xlink:href="#DejaVuSans-30" transform="translate(159.033203 0)"/>
      </g>
     </g>
    </g>
    <g id="ytick_4">
     <g id="line2d_10">
      <g>
       <use xlink:href="#me2e87196b8" x="57.6" y="112.255508" style="stroke: #000000; stroke-width: 0.8"/>
      </g>
     </g>
     <g id="text_11">
      <!-- 0.02 -->
      <g transform="translate(28.334375 116.054727) scale(0.1 -0.1)">
       <use xlink:href="#DejaVuSans-30"/>
       <use xlink:href="#DejaVuSans-2e" transform="translate(63.623047 0)"/>
       <use xlink:href="#DejaVuSans-30" transform="translate(95.410156 0)"/>
       <use xlink:href="#DejaVuSans-32" transform="translate(159.033203 0)"/>
      </g>
     </g>
    </g>
    <g id="ytick_5">
     <g id="line2d_11">
      <g>
       <use xlink:href="#me2e87196b8" x="57.6" y="59.144641" style="stroke: #000000; stroke-width: 0.8"/>
      </g>
     </g>
     <g id="text_12">
      <!-- 0.04 -->
      <g transform="translate(28.334375 62.94386) scale(0.1 -0.1)">
       <use xlink:href="#DejaVuSans-30"/>
       <use xlink:href="#DejaVuSans-2e" transform="translate(63.623047 0)"/>
       <use xlink:href="#DejaVuSans-30" transform="translate(95.410156 0)"/>
       <use xlink:href="#DejaVuSans-34" transform="translate(159.033203 0)"/>
      </g>
     </g>
    </g>
    <g id="text_13">
     <!-- Loss -->
     <g transform="translate(13.875 185.495187) rotate(-90) scale(0.1 -0.1)">
      <defs>
       <path id="DejaVuSans-4c" d="M 628 4666 
L 1259 4666 
L 1259 531 
L 3531 531 
L 3531 0 
L 628 0 
L 628 4666 
z
" transform="scale(0.015625)"/>
       <path id="DejaVuSans-73" d="M 2834 3397 
L 2834 2853 
Q 2591 2978 2328 3040 
Q 2066 3103 1784 3103 
Q 1356 3103 1142 2972 
Q 928 2841 928 2578 
Q 928 2378 1081 2264 
Q 1234 2150 1697 2047 
L 1894 2003 
Q 2506 1872 2764 1633 
Q 3022 1394 3022 966 
Q 3022 478 2636 193 
Q 2250 -91 1575 -91 
Q 1294 -91 989 -36 
Q 684 19 347 128 
L 347 722 
Q 666 556 975 473 
Q 1284 391 1588 391 
Q 1994 391 2212 530 
Q 2431 669 2431 922 
Q 2431 1156 2273 1281 
Q 2116 1406 1581 1522 
L 1381 1569 
Q 847 1681 609 1914 
Q 372 2147 372 2553 
Q 372 3047 722 3315 
Q 1072 3584 1716 3584 
Q 2034 3584 2315 3537 
Q 2597 3491 2834 3397 
z
" transform="scale(0.015625)"/>
      </defs>
      <use xlink:href="#DejaVuSans-4c"/>
      <use xlink:href="#DejaVuSans-6f" transform="translate(53.962891 0)"/>
      <use xlink:href="#DejaVuSans-73" transform="translate(115.144531 0)"/>
      <use xlink:href="#DejaVuSans-73" transform="translate(167.244141 0)"/>
     </g>
    </g>
   </g>
   <g id="line2d_12">
    <path d="M 73.832727 138.279833 
L 74.483338 152.619767 
L 75.133948 156.868637 
L 75.784558 148.105344 
L 76.435169 161.648615 
L 77.085779 156.337528 
L 77.736389 162.445278 
L 78.386999 155.806419 
L 79.03761 144.387583 
L 79.68822 152.088659 
L 80.33883 161.914169 
L 80.989441 155.275311 
L 81.640051 153.947539 
L 82.290661 149.433115 
L 83.591882 165.100821 
L 84.242492 160.586397 
L 84.893103 142.528703 
L 85.543713 163.241941 
L 86.194323 151.823104 
L 86.844934 155.806419 
L 87.495544 153.947539 
L 88.146154 139.607605 
L 88.796764 155.540865 
L 89.447375 162.976386 
L 90.097985 134.030964 
L 90.748595 157.134191 
L 91.399206 143.059811 
L 92.700426 152.354213 
L 93.351037 149.964224 
L 94.001647 142.794257 
L 94.652257 157.930854 
L 95.302868 142.263148 
L 95.953478 155.540865 
L 96.604088 142.794257 
L 97.254698 158.461963 
L 97.905309 164.569712 
L 98.555919 150.760887 
L 99.206529 150.495333 
L 99.85714 161.38306 
L 100.50775 156.337528 
L 101.15836 164.835267 
L 101.808971 157.399745 
L 102.459581 145.715355 
L 103.110191 161.117506 
L 103.760802 155.540865 
L 104.411412 151.291996 
L 105.062022 153.41643 
L 105.712633 147.574235 
L 106.363243 152.088659 
L 107.013853 138.545387 
L 107.664463 148.902007 
L 108.315074 134.562072 
L 108.965684 159.789734 
L 109.616294 153.681985 
L 110.266905 154.478648 
L 111.568125 165.366375 
L 112.218736 160.320843 
L 112.869346 151.55755 
L 113.519956 158.196408 
L 114.170567 156.603082 
L 114.821177 153.41643 
L 115.471787 156.868637 
L 116.122398 158.727517 
L 116.773008 146.512018 
L 117.423618 155.540865 
L 118.074228 152.088659 
L 118.724839 142.528703 
L 119.375449 160.586397 
L 120.026059 157.6653 
L 120.67667 138.014279 
L 121.32728 154.744202 
L 121.97789 138.810942 
L 122.628501 207.855069 
L 123.279111 156.071974 
L 123.929721 162.710832 
L 124.580332 162.710832 
L 125.230942 132.703192 
L 125.881552 153.947539 
L 126.532163 162.710832 
L 127.182773 143.856474 
L 127.833383 159.258626 
L 128.483993 162.179723 
L 129.134604 274.774762 
L 129.785214 158.196408 
L 130.435824 154.213093 
L 131.086435 156.071974 
L 131.737045 155.275311 
L 132.387655 139.076496 
L 133.038266 163.507495 
L 134.339486 155.806419 
L 134.990097 180.502973 
L 135.640707 157.134191 
L 136.291317 206.527297 
L 136.941927 164.835267 
L 137.592538 154.213093 
L 138.243148 152.088659 
L 138.893758 132.172083 
L 139.544369 151.291996 
L 140.194979 143.856474 
L 140.845589 158.727517 
L 141.4962 155.009756 
L 142.14681 152.354213 
L 142.79742 152.619767 
L 143.448031 161.914169 
L 144.098641 161.648615 
L 144.749251 141.466485 
L 145.399862 157.134191 
L 146.050472 149.167561 
L 146.701082 158.727517 
L 147.351692 163.507495 
L 148.002303 149.433115 
L 148.652913 162.976386 
L 149.303523 154.213093 
L 149.954134 147.839789 
L 150.604744 137.217616 
L 151.255354 147.043126 
L 151.905965 188.469603 
L 152.556575 160.586397 
L 153.207185 155.275311 
L 153.857796 157.930854 
L 154.508406 157.399745 
L 155.159016 156.071974 
L 155.809627 158.196408 
L 156.460237 148.636452 
L 157.110847 145.715355 
L 157.761457 160.055289 
L 158.412068 128.985431 
L 159.062678 156.337528 
L 159.713288 152.354213 
L 161.014509 156.868637 
L 161.665119 152.354213 
L 162.31573 135.62429 
L 162.96634 140.138714 
L 163.61695 142.263148 
L 164.267561 149.69867 
L 164.918171 163.241941 
L 165.568781 155.806419 
L 166.219392 154.744202 
L 166.870002 155.540865 
L 167.520612 136.155398 
L 168.171222 154.744202 
L 168.821833 88.621172 
L 169.472443 154.478648 
L 170.123053 205.730634 
L 170.773664 157.399745 
L 171.424274 154.744202 
L 172.074884 133.234301 
L 172.725495 134.562072 
L 174.026715 154.478648 
L 174.677326 160.320843 
L 175.978546 160.851952 
L 176.629156 143.856474 
L 177.279767 149.433115 
L 177.930377 153.681985 
L 178.580987 152.088659 
L 179.231598 152.088659 
L 179.882208 158.993071 
L 180.532818 148.902007 
L 181.834039 141.997594 
L 182.484649 147.839789 
L 183.13526 155.275311 
L 183.78587 93.135596 
L 184.43648 163.773049 
L 185.087091 164.835267 
L 185.737701 105.351095 
L 186.388311 133.234301 
L 187.038921 150.760887 
L 188.340142 160.055289 
L 188.990752 161.38306 
L 189.641363 213.43171 
L 190.291973 149.964224 
L 190.942583 154.213093 
L 191.593194 165.100821 
L 192.243804 153.947539 
L 192.894414 158.461963 
L 193.545025 147.574235 
L 194.195635 151.823104 
L 194.846245 152.885322 
L 196.147466 158.727517 
L 196.798076 152.885322 
L 197.448686 152.885322 
L 198.099297 164.038604 
L 198.749907 164.569712 
L 199.400517 148.902007 
L 200.051128 165.100821 
L 200.701738 156.337528 
L 201.352348 154.744202 
L 202.002959 160.851952 
L 202.653569 161.117506 
L 203.304179 137.217616 
L 203.95479 157.6653 
L 204.6054 158.461963 
L 205.25601 152.354213 
L 205.906621 156.337528 
L 206.557231 138.279833 
L 207.207841 149.167561 
L 207.858451 148.105344 
L 208.509062 157.134191 
L 209.159672 160.055289 
L 209.810282 53.568 
L 210.460893 157.930854 
L 211.111503 156.868637 
L 211.762113 157.134191 
L 212.412724 155.806419 
L 213.063334 165.100821 
L 213.713944 101.898889 
L 214.364555 240.252698 
L 215.015165 164.835267 
L 215.665775 158.461963 
L 216.316385 164.835267 
L 216.966996 150.495333 
L 217.617606 163.507495 
L 218.268216 139.076496 
L 218.918827 158.196408 
L 219.569437 136.952061 
L 220.220047 145.4498 
L 220.870658 164.835267 
L 221.521268 136.420953 
L 222.171878 133.765409 
L 222.822489 161.38306 
L 223.473099 152.619767 
L 224.123709 153.681985 
L 224.77432 139.873159 
L 225.42493 155.275311 
L 226.07554 237.066046 
L 227.376761 89.152281 
L 228.027371 152.088659 
L 228.677981 139.607605 
L 229.328592 153.947539 
L 229.979202 157.930854 
L 230.629812 143.856474 
L 231.280423 155.009756 
L 231.931033 145.184246 
L 233.232254 161.38306 
L 233.882864 151.823104 
L 234.533474 155.275311 
L 235.184085 139.873159 
L 235.834695 152.088659 
L 236.485305 153.947539 
L 237.135915 139.873159 
L 237.786526 146.512018 
L 238.437136 132.968746 
L 239.087746 157.6653 
L 239.738357 154.213093 
L 240.388967 154.478648 
L 241.039577 155.009756 
L 241.690188 158.196408 
L 242.340798 159.258626 
L 243.642019 146.512018 
L 244.292629 165.100821 
L 244.943239 152.088659 
L 245.59385 162.445278 
L 246.24446 145.980909 
L 246.89507 155.275311 
L 247.54568 159.258626 
L 248.196291 152.619767 
L 248.846901 161.914169 
L 249.497511 158.196408 
L 250.148122 157.134191 
L 250.798732 157.399745 
L 251.449342 156.337528 
L 252.099953 121.54991 
L 252.750563 151.026441 
L 253.401173 92.604487 
L 254.051784 156.603082 
L 254.702394 157.134191 
L 255.353004 159.52418 
L 256.003615 138.545387 
L 256.654225 155.009756 
L 257.304835 156.868637 
L 257.955445 152.619767 
L 258.606056 140.669822 
L 259.907276 162.445278 
L 260.557887 162.445278 
L 261.208497 138.810942 
L 261.859107 155.806419 
L 262.509718 153.41643 
L 263.160328 154.213093 
L 263.810938 152.619767 
L 264.461549 154.744202 
L 265.112159 140.138714 
L 265.762769 154.213093 
L 266.413379 160.055289 
L 267.06399 164.835267 
L 267.7146 161.914169 
L 268.36521 144.918692 
L 269.015821 160.586397 
L 269.666431 160.055289 
L 270.317041 153.681985 
L 270.967652 155.009756 
L 271.618262 147.308681 
L 272.268872 146.246463 
L 272.919483 164.835267 
L 273.570093 148.105344 
L 274.220703 144.653137 
L 274.871314 164.835267 
L 276.172534 139.34205 
L 276.823144 159.789734 
L 277.473755 156.868637 
L 278.124365 136.420953 
L 278.774975 161.38306 
L 279.425586 158.196408 
L 280.076196 164.835267 
L 280.726806 159.52418 
L 281.377417 156.868637 
L 282.028027 158.461963 
L 282.678637 157.930854 
L 283.329248 142.263148 
L 284.630468 163.241941 
L 285.281079 156.868637 
L 285.931689 141.73204 
L 286.582299 152.088659 
L 287.232909 148.105344 
L 287.88352 295.488 
L 288.53413 147.308681 
L 289.835351 152.885322 
L 290.485961 152.619767 
L 291.136571 157.6653 
L 291.787182 152.354213 
L 293.088402 157.930854 
L 293.739013 157.134191 
L 294.389623 138.279833 
L 295.040233 157.930854 
L 295.690844 153.681985 
L 296.341454 161.914169 
L 296.992064 153.150876 
L 297.642674 151.026441 
L 298.293285 138.810942 
L 298.943895 157.6653 
L 299.594505 153.41643 
L 300.245116 156.071974 
L 300.895726 155.540865 
L 301.546336 162.710832 
L 302.196947 148.105344 
L 302.847557 151.291996 
L 303.498167 249.281546 
L 304.148778 153.947539 
L 304.799388 133.765409 
L 305.449998 187.938494 
L 306.100608 147.574235 
L 306.751219 151.291996 
L 307.401829 203.075091 
L 308.052439 155.806419 
L 308.70305 154.744202 
L 309.35366 148.902007 
L 310.00427 157.930854 
L 310.654881 158.196408 
L 311.305491 147.308681 
L 311.956101 151.026441 
L 312.606712 161.38306 
L 313.257322 147.574235 
L 313.907932 162.976386 
L 314.558543 143.856474 
L 315.209153 158.993071 
L 315.859763 230.958296 
L 316.510373 164.835267 
L 317.160984 148.636452 
L 317.811594 135.62429 
L 318.462204 141.466485 
L 319.112815 154.213093 
L 319.763425 160.320843 
L 320.414035 139.076496 
L 321.064646 153.150876 
L 321.715256 156.868637 
L 322.365866 149.433115 
L 323.016477 154.213093 
L 323.667087 138.545387 
L 324.317697 143.856474 
L 324.968308 164.304158 
L 325.618918 157.930854 
L 326.269528 164.835267 
L 326.920138 161.117506 
L 327.570749 158.196408 
L 328.221359 191.921809 
L 328.871969 158.461963 
L 329.52258 145.715355 
L 330.17319 161.914169 
L 330.8238 157.399745 
L 331.474411 134.030964 
L 332.125021 153.947539 
L 332.775631 151.55755 
L 333.426242 158.727517 
L 334.076852 159.789734 
L 334.727462 156.603082 
L 335.378073 139.873159 
L 336.028683 160.320843 
L 336.679293 148.902007 
L 337.329903 154.478648 
L 337.980514 163.241941 
L 338.631124 161.914169 
L 339.281734 160.851952 
L 339.932345 155.540865 
L 340.582955 156.071974 
L 341.233565 142.263148 
L 341.884176 149.433115 
L 342.534786 152.088659 
L 343.185396 159.258626 
L 343.836007 156.071974 
L 344.486617 162.976386 
L 345.137227 110.927737 
L 345.787837 139.873159 
L 346.438448 159.258626 
L 347.089058 156.868637 
L 347.739668 157.6653 
L 348.390279 155.540865 
L 349.040889 152.619767 
L 349.691499 143.59092 
L 350.34211 162.710832 
L 350.99272 156.868637 
L 351.64333 152.885322 
L 352.293941 158.993071 
L 352.944551 156.868637 
L 353.595161 164.835267 
L 354.245772 164.304158 
L 354.896382 160.586397 
L 355.546992 158.461963 
L 356.197602 157.930854 
L 356.848213 153.681985 
L 357.498823 132.703192 
L 358.149433 155.806419 
L 358.800044 156.071974 
L 359.450654 152.088659 
L 360.101264 134.562072 
L 360.751875 164.835267 
L 361.402485 165.100821 
L 362.053095 153.947539 
L 362.703706 146.777572 
L 363.354316 132.172083 
L 364.004926 147.574235 
L 364.655537 222.991666 
L 365.306147 163.773049 
L 365.956757 164.835267 
L 366.607367 152.088659 
L 367.257978 156.868637 
L 367.908588 204.402863 
L 368.559198 157.134191 
L 369.209809 152.885322 
L 369.860419 157.930854 
L 370.511029 154.744202 
L 371.16164 162.445278 
L 372.46286 162.976386 
L 373.113471 153.947539 
L 373.764081 152.619767 
L 374.414691 165.100821 
L 375.065302 159.52418 
L 375.715912 147.574235 
L 376.366522 163.241941 
L 377.017132 155.275311 
L 377.667743 139.873159 
L 378.318353 156.337528 
L 378.968963 156.603082 
L 379.619574 146.246463 
L 380.270184 161.117506 
L 380.920794 154.213093 
L 381.571405 154.213093 
L 382.222015 158.196408 
L 382.872625 152.619767 
L 383.523236 161.38306 
L 384.173846 67.907934 
L 384.824456 164.569712 
L 385.475066 148.902007 
L 386.125677 80.920097 
L 386.776287 163.507495 
L 387.426897 138.279833 
L 388.077508 147.308681 
L 388.728118 158.993071 
L 389.378728 143.059811 
L 390.029339 160.055289 
L 390.679949 159.258626 
L 391.330559 137.217616 
L 391.98117 155.275311 
L 392.63178 155.009756 
L 393.28239 134.562072 
L 393.933001 89.152281 
L 394.583611 157.399745 
L 395.234221 133.765409 
L 395.884831 163.773049 
L 396.535442 152.088659 
L 397.186052 143.059811 
L 397.836662 154.213093 
L 398.487273 152.088659 
L 398.487273 152.088659 
" clip-path="url(#p1d020c9490)" style="fill: none; stroke: #1f77b4; stroke-width: 1.5; stroke-linecap: square"/>
   </g>
   <g id="patch_3">
    <path d="M 57.6 307.584 
L 57.6 41.472 
" style="fill: none; stroke: #000000; stroke-width: 0.8; stroke-linejoin: miter; stroke-linecap: square"/>
   </g>
   <g id="patch_4">
    <path d="M 414.72 307.584 
L 414.72 41.472 
" style="fill: none; stroke: #000000; stroke-width: 0.8; stroke-linejoin: miter; stroke-linecap: square"/>
   </g>
   <g id="patch_5">
    <path d="M 57.6 307.584 
L 414.72 307.584 
" style="fill: none; stroke: #000000; stroke-width: 0.8; stroke-linejoin: miter; stroke-linecap: square"/>
   </g>
   <g id="patch_6">
    <path d="M 57.6 41.472 
L 414.72 41.472 
" style="fill: none; stroke: #000000; stroke-width: 0.8; stroke-linejoin: miter; stroke-linecap: square"/>
   </g>
   <g id="text_14">
    <!-- GRPO Loss -->
    <g transform="translate(203.933437 35.472) scale(0.12 -0.12)">
     <defs>
      <path id="DejaVuSans-47" d="M 3809 666 
L 3809 1919 
L 2778 1919 
L 2778 2438 
L 4434 2438 
L 4434 434 
Q 4069 175 3628 42 
Q 3188 -91 2688 -91 
Q 1594 -91 976 548 
Q 359 1188 359 2328 
Q 359 3472 976 4111 
Q 1594 4750 2688 4750 
Q 3144 4750 3555 4637 
Q 3966 4525 4313 4306 
L 4313 3634 
Q 3963 3931 3569 4081 
Q 3175 4231 2741 4231 
Q 1884 4231 1454 3753 
Q 1025 3275 1025 2328 
Q 1025 1384 1454 906 
Q 1884 428 2741 428 
Q 3075 428 3337 486 
Q 3600 544 3809 666 
z
" transform="scale(0.015625)"/>
      <path id="DejaVuSans-52" d="M 2841 2188 
Q 3044 2119 3236 1894 
Q 3428 1669 3622 1275 
L 4263 0 
L 3584 0 
L 2988 1197 
Q 2756 1666 2539 1819 
Q 2322 1972 1947 1972 
L 1259 1972 
L 1259 0 
L 628 0 
L 628 4666 
L 2053 4666 
Q 2853 4666 3247 4331 
Q 3641 3997 3641 3322 
Q 3641 2881 3436 2590 
Q 3231 2300 2841 2188 
z
M 1259 4147 
L 1259 2491 
L 2053 2491 
Q 2509 2491 2742 2702 
Q 2975 2913 2975 3322 
Q 2975 3731 2742 3939 
Q 2509 4147 2053 4147 
L 1259 4147 
z
" transform="scale(0.015625)"/>
      <path id="DejaVuSans-50" d="M 1259 4147 
L 1259 2394 
L 2053 2394 
Q 2494 2394 2734 2622 
Q 2975 2850 2975 3272 
Q 2975 3691 2734 3919 
Q 2494 4147 2053 4147 
L 1259 4147 
z
M 628 4666 
L 2053 4666 
Q 2838 4666 3239 4311 
Q 3641 3956 3641 3272 
Q 3641 2581 3239 2228 
Q 2838 1875 2053 1875 
L 1259 1875 
L 1259 0 
L 628 0 
L 628 4666 
z
" transform="scale(0.015625)"/>
      <path id="DejaVuSans-4f" d="M 2522 4238 
Q 1834 4238 1429 3725 
Q 1025 3213 1025 2328 
Q 1025 1447 1429 934 
Q 1834 422 2522 422 
Q 3209 422 3611 934 
Q 4013 1447 4013 2328 
Q 4013 3213 3611 3725 
Q 3209 4238 2522 4238 
z
M 2522 4750 
Q 3503 4750 4090 4092 
Q 4678 3434 4678 2328 
Q 4678 1225 4090 567 
Q 3503 -91 2522 -91 
Q 1538 -91 948 565 
Q 359 1222 359 2328 
Q 359 3434 948 4092 
Q 1538 4750 2522 4750 
z
" transform="scale(0.015625)"/>
      <path id="DejaVuSans-20" transform="scale(0.015625)"/>
     </defs>
     <use xlink:href="#DejaVuSans-47"/>
     <use xlink:href="#DejaVuSans-52" transform="translate(77.490234 0)"/>
     <use xlink:href="#DejaVuSans-50" transform="translate(146.972656 0)"/>
     <use xlink:href="#DejaVuSans-4f" transform="translate(207.275391 0)"/>
     <use xlink:href="#DejaVuSans-20" transform="translate(285.986328 0)"/>
     <use xlink:href="#DejaVuSans-4c" transform="translate(317.773438 0)"/>
     <use xlink:href="#DejaVuSans-6f" transform="translate(371.736328 0)"/>
     <use xlink:href="#DejaVuSans-73" transform="translate(432.917969 0)"/>
     <use xlink:href="#DejaVuSans-73" transform="translate(485.017578 0)"/>
    </g>
   </g>
  </g>
 </g>
 <defs>
  <clipPath id="p1d020c9490">
   <rect x="57.6" y="41.472" width="357.12" height="266.112"/>
  </clipPath>
 </defs>
</svg>
