<?xml version="1.0" encoding="utf-8" standalone="no"?>
<!DOCTYPE svg PUBLIC "-//W3C//DTD SVG 1.1//EN"
  "http://www.w3.org/Graphics/SVG/1.1/DTD/svg11.dtd">
<svg xmlns:xlink="http://www.w3.org/1999/xlink" width="460.8pt" height="345.6pt" viewBox="0 0 460.8 345.6" xmlns="http://www.w3.org/2000/svg" version="1.1">
 <metadata>
  <rdf:RDF xmlns:dc="http://purl.org/dc/elements/1.1/" xmlns:cc="http://creativecommons.org/ns#" xmlns:rdf="http://www.w3.org/1999/02/22-rdf-syntax-ns#">
   <cc:Work>
    <dc:type rdf:resource="http://purl.org/dc/dcmitype/StillImage"/>
    <dc:date>2025-12-17T21:02:31.301741</dc:date>
    <dc:format>image/svg+xml</dc:format>
    <dc:creator>
     <cc:Agent>
      <dc:title>Matplotlib v3.10.8, https://matplotlib.org/</dc:title>
     </cc:Agent>
    </dc:creator>
   </cc:Work>
  </rdf:RDF>
 </metadata>
 <defs>
  <style type="text/css">*{stroke-linejoin: round; stroke-linecap: butt}</style>
 </defs>
 <g id="figure_1">
  <g id="patch_1">
   <path d="M 0 345.6 
L 460.8 345.6 
L 460.8 0 
L 0 0 
z
" style="fill: #ffffff"/>
  </g>
  <g id="axes_1">
   <g id="patch_2">
    <path d="M 57.6 307.584 
L 414.72 307.584 
L 414.72 41.472 
L 57.6 41.472 
z
" style="fill: #ffffff"/>
   </g>
   <g id="matplotlib.axis_1">
    <g id="xtick_1">
     <g id="line2d_1">
      <defs>
       <path id="mb8c8af8dee" d="M 0 0 
L 0 3.5 
" style="stroke: #000000; stroke-width: 0.8"/>
      </defs>
      <g>
       <use xlink:href="#mb8c8af8dee" x="73.832727" y="307.584" style="stroke: #000000; stroke-width: 0.8"/>
      </g>
     </g>
     <g id="text_1">
      <!-- 0 -->
      <g transform="translate(70.651477 322.182437) scale(0.1 -0.1)">
       <defs>
        <path id="DejaVuSans-30" d="M 2034 4250 
Q 1547 4250 1301 3770 
Q 1056 3291 1056 2328 
Q 1056 1369 1301 889 
Q 1547 409 2034 409 
Q 2525 409 2770 889 
Q 3016 1369 3016 2328 
Q 3016 3291 2770 3770 
Q 2525 4250 2034 4250 
z
M 2034 4750 
Q 2819 4750 3233 4129 
Q 3647 3509 3647 2328 
Q 3647 1150 3233 529 
Q 2819 -91 2034 -91 
Q 1250 -91 836 529 
Q 422 1150 422 2328 
Q 422 3509 836 4129 
Q 1250 4750 2034 4750 
z
" transform="scale(0.015625)"/>
       </defs>
       <use xlink:href="#DejaVuSans-30"/>
      </g>
     </g>
    </g>
    <g id="xtick_2">
     <g id="line2d_2">
      <g>
       <use xlink:href="#mb8c8af8dee" x="138.893758" y="307.584" style="stroke: #000000; stroke-width: 0.8"/>
      </g>
     </g>
     <g id="text_2">
      <!-- 100 -->
      <g transform="translate(129.350008 322.182437) scale(0.1 -0.1)">
       <defs>
        <path id="DejaVuSans-31" d="M 794 531 
L 1825 531 
L 1825 4091 
L 703 3866 
L 703 4441 
L 1819 4666 
L 2450 4666 
L 2450 531 
L 3481 531 
L 3481 0 
L 794 0 
L 794 531 
z
" transform="scale(0.015625)"/>
       </defs>
       <use xlink:href="#DejaVuSans-31"/>
       <use xlink:href="#DejaVuSans-30" transform="translate(63.623047 0)"/>
       <use xlink:href="#DejaVuSans-30" transform="translate(127.246094 0)"/>
      </g>
     </g>
    </g>
    <g id="xtick_3">
     <g id="line2d_3">
      <g>
       <use xlink:href="#mb8c8af8dee" x="203.95479" y="307.584" style="stroke: #000000; stroke-width: 0.8"/>
      </g>
     </g>
     <g id="text_3">
      <!-- 200 -->
      <g transform="translate(194.41104 322.182437) scale(0.1 -0.1)">
       <defs>
        <path id="DejaVuSans-32" d="M 1228 531 
L 3431 531 
L 3431 0 
L 469 0 
L 469 531 
Q 828 903 1448 1529 
Q 2069 2156 2228 2338 
Q 2531 2678 2651 2914 
Q 2772 3150 2772 3378 
Q 2772 3750 2511 3984 
Q 2250 4219 1831 4219 
Q 1534 4219 1204 4116 
Q 875 4013 500 3803 
L 500 4441 
Q 881 4594 1212 4672 
Q 1544 4750 1819 4750 
Q 2544 4750 2975 4387 
Q 3406 4025 3406 3419 
Q 3406 3131 3298 2873 
Q 3191 2616 2906 2266 
Q 2828 2175 2409 1742 
Q 1991 1309 1228 531 
z
" transform="scale(0.015625)"/>
       </defs>
       <use xlink:href="#DejaVuSans-32"/>
       <use xlink:href="#DejaVuSans-30" transform="translate(63.623047 0)"/>
       <use xlink:href="#DejaVuSans-30" transform="translate(127.246094 0)"/>
      </g>
     </g>
    </g>
    <g id="xtick_4">
     <g id="line2d_4">
      <g>
       <use xlink:href="#mb8c8af8dee" x="269.015821" y="307.584" style="stroke: #000000; stroke-width: 0.8"/>
      </g>
     </g>
     <g id="text_4">
      <!-- 300 -->
      <g transform="translate(259.472071 322.182437) scale(0.1 -0.1)">
       <defs>
        <path id="DejaVuSans-33" d="M 2597 2516 
Q 3050 2419 3304 2112 
Q 3559 1806 3559 1356 
Q 3559 666 3084 287 
Q 2609 -91 1734 -91 
Q 1441 -91 1130 -33 
Q 819 25 488 141 
L 488 750 
Q 750 597 1062 519 
Q 1375 441 1716 441 
Q 2309 441 2620 675 
Q 2931 909 2931 1356 
Q 2931 1769 2642 2001 
Q 2353 2234 1838 2234 
L 1294 2234 
L 1294 2753 
L 1863 2753 
Q 2328 2753 2575 2939 
Q 2822 3125 2822 3475 
Q 2822 3834 2567 4026 
Q 2313 4219 1838 4219 
Q 1578 4219 1281 4162 
Q 984 4106 628 3988 
L 628 4550 
Q 988 4650 1302 4700 
Q 1616 4750 1894 4750 
Q 2613 4750 3031 4423 
Q 3450 4097 3450 3541 
Q 3450 3153 3228 2886 
Q 3006 2619 2597 2516 
z
" transform="scale(0.015625)"/>
       </defs>
       <use xlink:href="#DejaVuSans-33"/>
       <use xlink:href="#DejaVuSans-30" transform="translate(63.623047 0)"/>
       <use xlink:href="#DejaVuSans-30" transform="translate(127.246094 0)"/>
      </g>
     </g>
    </g>
    <g id="xtick_5">
     <g id="line2d_5">
      <g>
       <use xlink:href="#mb8c8af8dee" x="334.076852" y="307.584" style="stroke: #000000; stroke-width: 0.8"/>
      </g>
     </g>
     <g id="text_5">
      <!-- 400 -->
      <g transform="translate(324.533102 322.182437) scale(0.1 -0.1)">
       <defs>
        <path id="DejaVuSans-34" d="M 2419 4116 
L 825 1625 
L 2419 1625 
L 2419 4116 
z
M 2253 4666 
L 3047 4666 
L 3047 1625 
L 3713 1625 
L 3713 1100 
L 3047 1100 
L 3047 0 
L 2419 0 
L 2419 1100 
L 313 1100 
L 313 1709 
L 2253 4666 
z
" transform="scale(0.015625)"/>
       </defs>
       <use xlink:href="#DejaVuSans-34"/>
       <use xlink:href="#DejaVuSans-30" transform="translate(63.623047 0)"/>
       <use xlink:href="#DejaVuSans-30" transform="translate(127.246094 0)"/>
      </g>
     </g>
    </g>
    <g id="xtick_6">
     <g id="line2d_6">
      <g>
       <use xlink:href="#mb8c8af8dee" x="399.137883" y="307.584" style="stroke: #000000; stroke-width: 0.8"/>
      </g>
     </g>
     <g id="text_6">
      <!-- 500 -->
      <g transform="translate(389.594133 322.182437) scale(0.1 -0.1)">
       <defs>
        <path id="DejaVuSans-35" d="M 691 4666 
L 3169 4666 
L 3169 4134 
L 1269 4134 
L 1269 2991 
Q 1406 3038 1543 3061 
Q 1681 3084 1819 3084 
Q 2600 3084 3056 2656 
Q 3513 2228 3513 1497 
Q 3513 744 3044 326 
Q 2575 -91 1722 -91 
Q 1428 -91 1123 -41 
Q 819 9 494 109 
L 494 744 
Q 775 591 1075 516 
Q 1375 441 1709 441 
Q 2250 441 2565 725 
Q 2881 1009 2881 1497 
Q 2881 1984 2565 2268 
Q 2250 2553 1709 2553 
Q 1456 2553 1204 2497 
Q 953 2441 691 2322 
L 691 4666 
z
" transform="scale(0.015625)"/>
       </defs>
       <use xlink:href="#DejaVuSans-35"/>
       <use xlink:href="#DejaVuSans-30" transform="translate(63.623047 0)"/>
       <use xlink:href="#DejaVuSans-30" transform="translate(127.246094 0)"/>
      </g>
     </g>
    </g>
    <g id="text_7">
     <!-- Epoch -->
     <g transform="translate(220.849063 335.860562) scale(0.1 -0.1)">
      <defs>
       <path id="DejaVuSans-45" d="M 628 4666 
L 3578 4666 
L 3578 4134 
L 1259 4134 
L 1259 2753 
L 3481 2753 
L 3481 2222 
L 1259 2222 
L 1259 531 
L 3634 531 
L 3634 0 
L 628 0 
L 628 4666 
z
" transform="scale(0.015625)"/>
       <path id="DejaVuSans-70" d="M 1159 525 
L 1159 -1331 
L 581 -1331 
L 581 3500 
L 1159 3500 
L 1159 2969 
Q 1341 3281 1617 3432 
Q 1894 3584 2278 3584 
Q 2916 3584 3314 3078 
Q 3713 2572 3713 1747 
Q 3713 922 3314 415 
Q 2916 -91 2278 -91 
Q 1894 -91 1617 61 
Q 1341 213 1159 525 
z
M 3116 1747 
Q 3116 2381 2855 2742 
Q 2594 3103 2138 3103 
Q 1681 3103 1420 2742 
Q 1159 2381 1159 1747 
Q 1159 1113 1420 752 
Q 1681 391 2138 391 
Q 2594 391 2855 752 
Q 3116 1113 3116 1747 
z
" transform="scale(0.015625)"/>
       <path id="DejaVuSans-6f" d="M 1959 3097 
Q 1497 3097 1228 2736 
Q 959 2375 959 1747 
Q 959 1119 1226 758 
Q 1494 397 1959 397 
Q 2419 397 2687 759 
Q 2956 1122 2956 1747 
Q 2956 2369 2687 2733 
Q 2419 3097 1959 3097 
z
M 1959 3584 
Q 2709 3584 3137 3096 
Q 3566 2609 3566 1747 
Q 3566 888 3137 398 
Q 2709 -91 1959 -91 
Q 1206 -91 779 398 
Q 353 888 353 1747 
Q 353 2609 779 3096 
Q 1206 3584 1959 3584 
z
" transform="scale(0.015625)"/>
       <path id="DejaVuSans-63" d="M 3122 3366 
L 3122 2828 
Q 2878 2963 2633 3030 
Q 2388 3097 2138 3097 
Q 1578 3097 1268 2742 
Q 959 2388 959 1747 
Q 959 1106 1268 751 
Q 1578 397 2138 397 
Q 2388 397 2633 464 
Q 2878 531 3122 666 
L 3122 134 
Q 2881 22 2623 -34 
Q 2366 -91 2075 -91 
Q 1284 -91 818 406 
Q 353 903 353 1747 
Q 353 2603 823 3093 
Q 1294 3584 2113 3584 
Q 2378 3584 2631 3529 
Q 2884 3475 3122 3366 
z
" transform="scale(0.015625)"/>
       <path id="DejaVuSans-68" d="M 3513 2113 
L 3513 0 
L 2938 0 
L 2938 2094 
Q 2938 2591 2744 2837 
Q 2550 3084 2163 3084 
Q 1697 3084 1428 2787 
Q 1159 2491 1159 1978 
L 1159 0 
L 581 0 
L 581 4863 
L 1159 4863 
L 1159 2956 
Q 1366 3272 1645 3428 
Q 1925 3584 2291 3584 
Q 2894 3584 3203 3211 
Q 3513 2838 3513 2113 
z
" transform="scale(0.015625)"/>
      </defs>
      <use xlink:href="#DejaVuSans-45"/>
      <use xlink:href="#DejaVuSans-70" transform="translate(63.183594 0)"/>
      <use xlink:href="#DejaVuSans-6f" transform="translate(126.660156 0)"/>
      <use xlink:href="#DejaVuSans-63" transform="translate(187.841797 0)"/>
      <use xlink:href="#DejaVuSans-68" transform="translate(242.822266 0)"/>
     </g>
    </g>
   </g>
   <g id="matplotlib.axis_2">
    <g id="ytick_1">
     <g id="line2d_7">
      <defs>
       <path id="mc859b4dec0" d="M 0 0 
L -3.5 0 
" style="stroke: #000000; stroke-width: 0.8"/>
      </defs>
      <g>
       <use xlink:href="#mc859b4dec0" x="57.6" y="295.498184" style="stroke: #000000; stroke-width: 0.8"/>
      </g>
     </g>
     <g id="text_8">
      <!-- 0 -->
      <g transform="translate(44.2375 299.297402) scale(0.1 -0.1)">
       <use xlink:href="#DejaVuSans-30"/>
      </g>
     </g>
    </g>
    <g id="ytick_2">
     <g id="line2d_8">
      <g>
       <use xlink:href="#mc859b4dec0" x="57.6" y="244.580521" style="stroke: #000000; stroke-width: 0.8"/>
      </g>
     </g>
     <g id="text_9">
      <!-- 1 -->
      <g transform="translate(44.2375 248.379739) scale(0.1 -0.1)">
       <use xlink:href="#DejaVuSans-31"/>
      </g>
     </g>
    </g>
    <g id="ytick_3">
     <g id="line2d_9">
      <g>
       <use xlink:href="#mc859b4dec0" x="57.6" y="193.662858" style="stroke: #000000; stroke-width: 0.8"/>
      </g>
     </g>
     <g id="text_10">
      <!-- 2 -->
      <g transform="translate(44.2375 197.462076) scale(0.1 -0.1)">
       <use xlink:href="#DejaVuSans-32"/>
      </g>
     </g>
    </g>
    <g id="ytick_4">
     <g id="line2d_10">
      <g>
       <use xlink:href="#mc859b4dec0" x="57.6" y="142.745195" style="stroke: #000000; stroke-width: 0.8"/>
      </g>
     </g>
     <g id="text_11">
      <!-- 3 -->
      <g transform="translate(44.2375 146.544414) scale(0.1 -0.1)">
       <use xlink:href="#DejaVuSans-33"/>
      </g>
     </g>
    </g>
    <g id="ytick_5">
     <g id="line2d_11">
      <g>
       <use xlink:href="#mc859b4dec0" x="57.6" y="91.827532" style="stroke: #000000; stroke-width: 0.8"/>
      </g>
     </g>
     <g id="text_12">
      <!-- 4 -->
      <g transform="translate(44.2375 95.626751) scale(0.1 -0.1)">
       <use xlink:href="#DejaVuSans-34"/>
      </g>
     </g>
    </g>
    <g id="text_13">
     <!-- Loss -->
     <g transform="translate(38.157812 185.495187) rotate(-90) scale(0.1 -0.1)">
      <defs>
       <path id="DejaVuSans-4c" d="M 628 4666 
L 1259 4666 
L 1259 531 
L 3531 531 
L 3531 0 
L 628 0 
L 628 4666 
z
" transform="scale(0.015625)"/>
       <path id="DejaVuSans-73" d="M 2834 3397 
L 2834 2853 
Q 2591 2978 2328 3040 
Q 2066 3103 1784 3103 
Q 1356 3103 1142 2972 
Q 928 2841 928 2578 
Q 928 2378 1081 2264 
Q 1234 2150 1697 2047 
L 1894 2003 
Q 2506 1872 2764 1633 
Q 3022 1394 3022 966 
Q 3022 478 2636 193 
Q 2250 -91 1575 -91 
Q 1294 -91 989 -36 
Q 684 19 347 128 
L 347 722 
Q 666 556 975 473 
Q 1284 391 1588 391 
Q 1994 391 2212 530 
Q 2431 669 2431 922 
Q 2431 1156 2273 1281 
Q 2116 1406 1581 1522 
L 1381 1569 
Q 847 1681 609 1914 
Q 372 2147 372 2553 
Q 372 3047 722 3315 
Q 1072 3584 1716 3584 
Q 2034 3584 2315 3537 
Q 2597 3491 2834 3397 
z
" transform="scale(0.015625)"/>
      </defs>
      <use xlink:href="#DejaVuSans-4c"/>
      <use xlink:href="#DejaVuSans-6f" transform="translate(53.962891 0)"/>
      <use xlink:href="#DejaVuSans-73" transform="translate(115.144531 0)"/>
      <use xlink:href="#DejaVuSans-73" transform="translate(167.244141 0)"/>
     </g>
    </g>
   </g>
   <g id="line2d_12">
    <path d="M 73.832727 55.70145 
L 74.483338 54.423417 
L 75.133948 57.671964 
L 75.784558 53.568 
L 76.435169 118.146872 
L 77.736389 206.529751 
L 78.386999 168.025814 
L 79.68822 228.200308 
L 80.33883 215.4047 
L 80.989441 231.372479 
L 81.640051 207.517554 
L 82.290661 226.805165 
L 82.941272 229.025175 
L 83.591882 238.597695 
L 84.242492 234.733045 
L 84.893103 234.794146 
L 85.543713 251.378029 
L 86.194323 255.151027 
L 86.844934 225.618783 
L 87.495544 243.358497 
L 88.146154 242.335052 
L 88.796764 257.019706 
L 89.447375 247.920719 
L 90.097985 244.050977 
L 90.748595 251.12344 
L 91.399206 244.998045 
L 92.049816 258.598153 
L 92.700426 254.010472 
L 93.351037 256.617456 
L 94.001647 248.552098 
L 94.652257 258.35884 
L 95.302868 262.024912 
L 95.953478 260.833439 
L 96.604088 263.104366 
L 97.905309 249.906508 
L 98.555919 259.789627 
L 99.206529 254.163225 
L 99.85714 252.605144 
L 100.50775 255.874058 
L 101.15836 257.411772 
L 101.808971 243.694553 
L 103.110191 265.466946 
L 103.760802 269.234853 
L 104.411412 251.632617 
L 105.062022 252.981935 
L 105.712633 259.753984 
L 106.363243 257.849664 
L 107.013853 269.127926 
L 107.664463 274.09749 
L 108.315074 274.056756 
L 108.965684 261.637938 
L 109.616294 267.52402 
L 110.266905 266.312179 
L 110.917515 267.20833 
L 111.568125 276.220756 
L 112.218736 273.109687 
L 112.869346 275.854149 
L 113.519956 275.599561 
L 114.170567 277.687185 
L 114.821177 277.086357 
L 116.122398 273.588313 
L 116.773008 279.387835 
L 117.423618 279.48967 
L 118.074228 284.163912 
L 118.724839 275.777773 
L 119.375449 271.852021 
L 120.026059 281.297247 
L 121.32728 273.858177 
L 121.97789 283.766754 
L 122.628501 270.355042 
L 123.279111 289.265862 
L 123.929721 281.567111 
L 124.580332 277.188192 
L 125.230942 274.459005 
L 125.881552 282.840053 
L 126.532163 278.272738 
L 127.182773 284.841117 
L 127.833383 287.091677 
L 128.483993 280.06504 
L 129.134604 271.729818 
L 129.785214 270.34995 
L 130.435824 276.460069 
L 131.086435 281.287064 
L 131.737045 281.393991 
L 132.387655 282.127205 
L 133.038266 278.522235 
L 133.688876 282.249408 
L 134.339486 279.036503 
L 134.990097 270.411051 
L 135.640707 276.454978 
L 136.291317 284.800383 
L 136.941927 275.925434 
L 137.592538 274.901989 
L 138.243148 285.823828 
L 138.893758 284.785107 
L 139.544369 291.042888 
L 140.194979 280.350179 
L 140.845589 282.997897 
L 141.4962 288.257692 
L 142.14681 284.988778 
L 142.79742 292.840282 
L 143.448031 287.147687 
L 144.098641 285.039696 
L 144.749251 284.718914 
L 145.399862 282.768768 
L 146.050472 286.653785 
L 146.701082 277.951957 
L 147.351692 287.12732 
L 148.002303 284.225013 
L 148.652913 290.900319 
L 149.303523 284.973503 
L 149.954134 288.155857 
L 150.604744 287.524478 
L 151.255354 284.347215 
L 151.905965 284.169004 
L 152.556575 287.773974 
L 153.207185 288.201682 
L 153.857796 284.326848 
L 154.508406 283.924599 
L 155.159016 284.265747 
L 156.460237 288.909438 
L 157.110847 284.525427 
L 157.761457 287.804525 
L 158.412068 282.101746 
L 159.062678 285.070246 
L 159.713288 280.23816 
L 160.363899 285.737268 
L 161.014509 284.846208 
L 161.665119 277.071081 
L 162.31573 289.876874 
L 162.96634 286.445023 
L 163.61695 286.236261 
L 164.267561 287.045851 
L 164.918171 289.011273 
L 165.568781 288.960356 
L 166.219392 286.03259 
L 166.870002 287.682322 
L 167.520612 286.114058 
L 168.171222 287.168054 
L 168.821833 284.469418 
L 169.472443 291.745552 
L 170.123053 286.322821 
L 170.773664 284.219921 
L 171.424274 290.141645 
L 172.074884 287.086586 
L 172.725495 292.560234 
L 173.376105 288.665033 
L 174.026715 289.556092 
L 174.677326 293.970654 
L 175.327936 291.816837 
L 175.978546 288.955264 
L 176.629156 291.750644 
L 177.279767 287.168054 
L 177.930377 286.215894 
L 178.580987 287.56012 
L 179.231598 292.504225 
L 179.882208 291.226192 
L 180.532818 292.387114 
L 181.183429 275.324605 
L 182.484649 291.82702 
L 183.13526 283.75657 
L 183.78587 290.508253 
L 184.43648 287.24443 
L 185.087091 291.516422 
L 185.737701 290.279123 
L 186.388311 284.611987 
L 187.038921 288.39517 
L 187.689532 287.977645 
L 188.340142 289.393156 
L 188.990752 291.623349 
L 189.641363 292.193627 
L 190.291973 291.536789 
L 190.942583 292.264912 
L 191.593194 287.957278 
L 192.243804 290.503161 
L 192.894414 286.078416 
L 193.545025 286.322821 
L 194.195635 292.34638 
L 194.846245 291.328027 
L 195.496856 289.270953 
L 196.798076 293.145788 
L 197.448686 291.837204 
L 198.099297 288.379894 
L 198.749907 288.563198 
L 199.400517 290.009259 
L 200.051128 283.125191 
L 200.701738 289.795405 
L 201.352348 289.815772 
L 202.002959 283.654735 
L 202.653569 291.536789 
L 203.304179 292.096884 
L 203.95479 293.894277 
L 204.6054 293.018493 
L 205.25601 290.625363 
L 205.906621 291.48078 
L 206.557231 294.067397 
L 207.858451 289.403339 
L 208.509062 292.682437 
L 209.159672 291.689542 
L 209.810282 290.004168 
L 210.460893 287.870718 
L 211.111503 293.196705 
L 211.762113 291.572432 
L 212.412724 292.616244 
L 213.063334 292.672253 
L 213.713944 293.746616 
L 214.364555 290.274031 
L 215.015165 291.801561 
L 215.665775 293.70079 
L 216.316385 292.570418 
L 216.966996 292.081608 
L 217.617606 294.785336 
L 218.268216 289.479716 
L 218.918827 286.226077 
L 219.569437 291.363669 
L 220.220047 292.982851 
L 220.870658 291.450229 
L 221.521268 292.646794 
L 222.171878 292.14271 
L 222.822489 290.925777 
L 223.473099 292.993035 
L 224.123709 288.56829 
L 224.77432 286.333004 
L 225.42493 290.997062 
L 226.07554 293.054136 
L 226.72615 285.650708 
L 227.376761 291.368761 
L 228.027371 291.664084 
L 228.677981 292.819914 
L 229.328592 288.950172 
L 230.629812 292.9523 
L 231.280423 293.548037 
L 231.931033 292.585693 
L 232.581643 291.414587 
L 233.232254 292.254728 
L 233.882864 292.096884 
L 234.533474 292.300554 
L 235.184085 293.70079 
L 235.834695 293.660056 
L 236.485305 293.985929 
L 237.786526 294.031755 
L 238.437136 291.796469 
L 239.087746 293.492028 
L 239.738357 294.184508 
L 240.388967 293.598955 
L 241.039577 291.82702 
L 241.690188 292.43294 
L 242.340798 294.10304 
L 242.991408 293.838268 
L 243.642019 293.772075 
L 244.292629 291.093806 
L 244.943239 293.879002 
L 245.59385 294.775153 
L 246.24446 287.947094 
L 246.89507 286.862548 
L 247.54568 291.832112 
L 248.196291 292.275095 
L 248.846901 290.503161 
L 249.497511 293.344366 
L 250.148122 291.521514 
L 250.798732 292.916658 
L 251.449342 292.804639 
L 252.099953 288.547923 
L 252.750563 293.716065 
L 253.401173 294.184508 
L 254.051784 294.367811 
L 254.702394 293.726249 
L 255.353004 292.687529 
L 256.003615 295.029741 
L 256.654225 293.624414 
L 257.304835 294.377995 
L 257.955445 294.301618 
L 258.606056 292.881016 
L 259.256666 293.461477 
L 259.907276 293.858635 
L 260.557887 293.792442 
L 261.208497 292.565326 
L 261.859107 293.92992 
L 262.509718 292.071425 
L 263.160328 291.058163 
L 263.810938 291.399312 
L 264.461549 294.948273 
L 265.112159 293.476752 
L 265.762769 294.092856 
L 266.413379 292.392206 
L 267.06399 295.080659 
L 267.7146 291.577523 
L 268.36521 294.820979 
L 269.015821 294.097948 
L 269.666431 295.101026 
L 270.317041 294.347444 
L 270.967652 292.280187 
L 271.618262 294.800612 
L 272.268872 293.991021 
L 272.919483 293.833176 
L 273.570093 295.162127 
L 274.871314 292.937025 
L 275.521924 294.036847 
L 276.172534 290.589721 
L 276.823144 294.138682 
L 277.473755 295.31488 
L 278.124365 291.572432 
L 278.774975 292.539867 
L 279.425586 294.021571 
L 280.076196 294.973732 
L 280.726806 294.637675 
L 281.377417 293.21198 
L 282.028027 293.334183 
L 282.678637 295.167219 
L 283.329248 294.754786 
L 283.979858 293.721157 
L 284.630468 292.326013 
L 285.281079 291.801561 
L 285.931689 294.540931 
L 286.582299 293.517486 
L 287.232909 295.187586 
L 287.88352 294.291435 
L 288.53413 293.619322 
L 289.18474 294.174324 
L 289.835351 293.634597 
L 290.485961 295.279238 
L 291.136571 292.219086 
L 291.787182 294.861713 
L 292.437792 292.524592 
L 293.088402 293.797534 
L 293.739013 294.123407 
L 294.389623 295.202861 
L 295.040233 292.595877 
L 295.690844 291.898305 
L 296.341454 292.74863 
L 296.992064 294.444188 
L 297.642674 294.316894 
L 298.293285 294.703868 
L 298.943895 292.896291 
L 299.594505 295.269054 
L 300.245116 295.370889 
L 300.895726 295.223228 
L 301.546336 293.191613 
L 302.196947 294.490014 
L 302.847557 294.927906 
L 303.498167 294.001204 
L 304.799388 294.464555 
L 305.449998 295.309788 
L 306.100608 295.197769 
L 306.751219 295.375981 
L 307.401829 288.094755 
L 308.052439 294.184508 
L 308.70305 295.391256 
L 309.35366 290.895227 
L 310.00427 295.263962 
L 310.654881 295.294513 
L 311.305491 295.131576 
L 311.956101 295.325063 
L 312.606712 295.31488 
L 313.257322 294.052122 
L 314.558543 295.350522 
L 315.209153 294.978823 
L 315.859763 294.316894 
L 316.510373 294.332169 
L 317.160984 295.416715 
L 317.811594 294.36272 
L 318.462204 295.095934 
L 319.112815 294.983915 
L 319.763425 292.814823 
L 320.414035 295.024649 
L 321.064646 293.924828 
L 321.715256 295.330155 
L 323.016477 295.213045 
L 323.667087 294.174324 
L 324.317697 295.406532 
L 324.968308 295.207953 
L 325.618918 292.886107 
L 326.269528 292.366747 
L 326.920138 293.00831 
L 327.570749 295.437082 
L 328.221359 295.243595 
L 328.871969 294.505289 
L 329.52258 294.973732 
L 330.17319 293.843359 
L 330.8238 293.237439 
L 331.474411 294.56639 
L 332.125021 295.375981 
L 332.775631 294.846437 
L 333.426242 295.31488 
L 334.076852 294.36272 
L 334.727462 295.431991 
L 335.378073 295.131576 
L 336.028683 295.304696 
L 336.679293 293.716065 
L 337.329903 295.355614 
L 338.631124 293.955378 
L 339.281734 295.116301 
L 340.582955 295.090842 
L 341.233565 295.467633 
L 341.884176 295.207953 
L 343.185396 295.213045 
L 343.836007 294.082673 
L 344.486617 295.442174 
L 345.787837 295.462541 
L 346.438448 294.505289 
L 347.089058 295.457449 
L 349.040889 294.851529 
L 349.691499 294.398362 
L 350.34211 295.472725 
L 350.99272 295.319972 
L 351.64333 295.391256 
L 352.293941 295.299605 
L 352.944551 294.281251 
L 353.595161 292.931933 
L 354.245772 294.99919 
L 354.896382 294.383087 
L 355.546992 294.215058 
L 356.197602 295.437082 
L 356.848213 295.31488 
L 357.498823 294.703868 
L 358.149433 295.31488 
L 358.800044 294.311802 
L 359.450654 295.294513 
L 360.101264 295.467633 
L 360.751875 294.983915 
L 361.402485 295.472725 
L 362.053095 294.321986 
L 363.354316 295.452358 
L 364.004926 294.861713 
L 364.655537 295.467633 
L 365.306147 295.391256 
L 365.956757 295.431991 
L 366.607367 295.207953 
L 367.257978 295.442174 
L 367.908588 294.184508 
L 368.559198 295.151943 
L 369.209809 294.927906 
L 369.860419 295.462541 
L 371.16164 294.525656 
L 371.81225 295.304696 
L 372.46286 295.467633 
L 373.113471 294.892263 
L 373.764081 295.452358 
L 374.414691 295.335247 
L 375.065302 293.96047 
L 375.715912 295.472725 
L 376.366522 295.024649 
L 377.017132 294.953365 
L 377.667743 295.462541 
L 378.318353 295.029741 
L 378.968963 295.243595 
L 379.619574 294.39327 
L 380.270184 295.375981 
L 380.920794 295.488 
L 381.571405 295.218136 
L 382.222015 295.457449 
L 382.872625 295.070475 
L 383.523236 295.447266 
L 384.173846 295.289421 
L 384.824456 295.462541 
L 385.475066 295.467633 
L 386.125677 294.963548 
L 386.776287 295.197769 
L 387.426897 294.65295 
L 388.077508 294.719143 
L 388.728118 295.472725 
L 390.679949 295.467633 
L 391.330559 294.780244 
L 391.98117 295.452358 
L 393.28239 295.477816 
L 393.933001 295.187586 
L 394.583611 294.260884 
L 395.234221 294.540931 
L 395.884831 295.258871 
L 396.535442 295.472725 
L 397.186052 295.472725 
L 397.836662 295.070475 
L 398.487273 294.871896 
L 398.487273 294.871896 
" clip-path="url(#p90bad4593d)" style="fill: none; stroke: #1f77b4; stroke-width: 1.5; stroke-linecap: square"/>
   </g>
   <g id="patch_3">
    <path d="M 57.6 307.584 
L 57.6 41.472 
" style="fill: none; stroke: #000000; stroke-width: 0.8; stroke-linejoin: miter; stroke-linecap: square"/>
   </g>
   <g id="patch_4">
    <path d="M 414.72 307.584 
L 414.72 41.472 
" style="fill: none; stroke: #000000; stroke-width: 0.8; stroke-linejoin: miter; stroke-linecap: square"/>
   </g>
   <g id="patch_5">
    <path d="M 57.6 307.584 
L 414.72 307.584 
" style="fill: none; stroke: #000000; stroke-width: 0.8; stroke-linejoin: miter; stroke-linecap: square"/>
   </g>
   <g id="patch_6">
    <path d="M 57.6 41.472 
L 414.72 41.472 
" style="fill: none; stroke: #000000; stroke-width: 0.8; stroke-linejoin: miter; stroke-linecap: square"/>
   </g>
   <g id="text_14">
    <!-- LoRA Loss -->
    <g transform="translate(206.149687 35.472) scale(0.12 -0.12)">
     <defs>
      <path id="DejaVuSans-52" d="M 2841 2188 
Q 3044 2119 3236 1894 
Q 3428 1669 3622 1275 
L 4263 0 
L 3584 0 
L 2988 1197 
Q 2756 1666 2539 1819 
Q 2322 1972 1947 1972 
L 1259 1972 
L 1259 0 
L 628 0 
L 628 4666 
L 2053 4666 
Q 2853 4666 3247 4331 
Q 3641 3997 3641 3322 
Q 3641 2881 3436 2590 
Q 3231 2300 2841 2188 
z
M 1259 4147 
L 1259 2491 
L 2053 2491 
Q 2509 2491 2742 2702 
Q 2975 2913 2975 3322 
Q 2975 3731 2742 3939 
Q 2509 4147 2053 4147 
L 1259 4147 
z
" transform="scale(0.015625)"/>
      <path id="DejaVuSans-41" d="M 2188 4044 
L 1331 1722 
L 3047 1722 
L 2188 4044 
z
M 1831 4666 
L 2547 4666 
L 4325 0 
L 3669 0 
L 3244 1197 
L 1141 1197 
L 716 0 
L 50 0 
L 1831 4666 
z
" transform="scale(0.015625)"/>
      <path id="DejaVuSans-20" transform="scale(0.015625)"/>
     </defs>
     <use xlink:href="#DejaVuSans-4c"/>
     <use xlink:href="#DejaVuSans-6f" transform="translate(53.962891 0)"/>
     <use xlink:href="#DejaVuSans-52" transform="translate(115.144531 0)"/>
     <use xlink:href="#DejaVuSans-41" transform="translate(180.626953 0)"/>
     <use xlink:href="#DejaVuSans-20" transform="translate(249.035156 0)"/>
     <use xlink:href="#DejaVuSans-4c" transform="translate(280.822266 0)"/>
     <use xlink:href="#DejaVuSans-6f" transform="translate(334.785156 0)"/>
     <use xlink:href="#DejaVuSans-73" transform="translate(395.966797 0)"/>
     <use xlink:href="#DejaVuSans-73" transform="translate(448.066406 0)"/>
    </g>
   </g>
  </g>
 </g>
 <defs>
  <clipPath id="p90bad4593d">
   <rect x="57.6" y="41.472" width="357.12" height="266.112"/>
  </clipPath>
 </defs>
</svg>
